<svg xmlns="http://www.w3.org/2000/svg" xmlns:xlink="http://www.w3.org/1999/xlink" width="500" zoomAndPan="magnify" viewBox="0 0 375 374.999991" height="500" preserveAspectRatio="xMidYMid meet" version="1.0"><defs><clipPath id="e2198f706d"><path d="M 303 127 L 324 127 L 324 148 L 303 148 Z M 303 127 " clip-rule="nonzero"/></clipPath><clipPath id="5cfe05330a"><path d="M 113 272 L 180 272 L 180 337.5 L 113 337.5 Z M 113 272 " clip-rule="nonzero"/></clipPath><clipPath id="c114662ee6"><path d="M 37.5 37.5 L 337.5 37.5 L 337.5 337.5 L 37.5 337.5 Z M 37.5 37.5 " clip-rule="nonzero"/></clipPath><clipPath id="017ed25aca"><path d="M 54.75 37.5 L 320.25 37.5 C 324.824219 37.5 329.210938 39.316406 332.449219 42.550781 C 335.683594 45.789062 337.5 50.175781 337.5 54.75 L 337.5 320.25 C 337.5 324.824219 335.683594 329.210938 332.449219 332.449219 C 329.210938 335.683594 324.824219 337.5 320.25 337.5 L 54.75 337.5 C 50.175781 337.5 45.789062 335.683594 42.550781 332.449219 C 39.316406 329.210938 37.5 324.824219 37.5 320.25 L 37.5 54.75 C 37.5 50.175781 39.316406 45.789062 42.550781 42.550781 C 45.789062 39.316406 50.175781 37.5 54.75 37.5 Z M 54.75 37.5 " clip-rule="nonzero"/></clipPath><clipPath id="4e7b759bfa"><path d="M 0.5 0.5 L 300.5 0.5 L 300.5 300.5 L 0.5 300.5 Z M 0.5 0.5 " clip-rule="nonzero"/></clipPath><clipPath id="5cc6f9b70b"><path d="M 17.75 0.5 L 283.25 0.5 C 287.824219 0.5 292.210938 2.316406 295.449219 5.550781 C 298.683594 8.789062 300.5 13.175781 300.5 17.75 L 300.5 283.25 C 300.5 287.824219 298.683594 292.210938 295.449219 295.449219 C 292.210938 298.683594 287.824219 300.5 283.25 300.5 L 17.75 300.5 C 13.175781 300.5 8.789062 298.683594 5.550781 295.449219 C 2.316406 292.210938 0.5 287.824219 0.5 283.25 L 0.5 17.75 C 0.5 13.175781 2.316406 8.789062 5.550781 5.550781 C 8.789062 2.316406 13.175781 0.5 17.75 0.5 Z M 17.75 0.5 " clip-rule="nonzero"/></clipPath><clipPath id="f4ec783d63"><rect x="0" width="301" y="0" height="301"/></clipPath><clipPath id="7a38a5f9a2"><path d="M 298 130 L 317.695312 130 L 317.695312 150 L 298 150 Z M 298 130 " clip-rule="nonzero"/></clipPath><clipPath id="5abf57aa3d"><path d="M 117 268 L 180 268 L 180 330.332031 L 117 330.332031 Z M 117 268 " clip-rule="nonzero"/></clipPath></defs><path fill="#f34f29" d="M 290.429688 320.871094 C 271.226562 320.871094 245.546875 306.726562 227.390625 294.859375 C 202.003906 278.273438 174.566406 255.488281 148.046875 228.96875 C 116.425781 197.347656 89.960938 164.191406 73.519531 135.597656 C 54.484375 102.488281 51.042969 79.492188 63.289062 67.242188 C 68.03125 62.5 74.539062 60.09375 82.632812 60.09375 C 101.835938 60.09375 127.511719 74.238281 145.671875 86.105469 C 171.058594 102.691406 198.492188 125.476562 225.015625 151.996094 C 256.632812 183.617188 283.097656 216.773438 299.539062 245.367188 C 318.578125 278.476562 322.019531 301.472656 309.769531 313.722656 C 305.027344 318.464844 298.519531 320.871094 290.429688 320.871094 Z M 82.632812 80.34375 C 80.210938 80.34375 78.382812 80.789062 77.609375 81.5625 C 75.667969 83.503906 73.96875 95.75 91.078125 125.503906 C 106.65625 152.59375 131.972656 184.25 162.367188 214.644531 C 218.808594 271.085938 269.511719 300.617188 290.429688 300.617188 C 292.847656 300.617188 294.675781 300.175781 295.449219 299.402344 C 297.394531 297.460938 299.089844 285.214844 281.984375 255.460938 C 266.40625 228.371094 241.089844 196.710938 210.695312 166.320312 C 154.253906 109.875 103.546875 80.34375 82.632812 80.34375 Z M 82.632812 80.34375 " fill-opacity="1" fill-rule="nonzero"/><path fill="#f34f29" d="M 246.304688 247.617188 C 246.121094 247.800781 245.851562 247.898438 245.496094 247.910156 C 245.140625 247.921875 244.699219 247.84375 244.175781 247.683594 C 243.652344 247.519531 243.046875 247.273438 242.359375 246.9375 C 241.675781 246.605469 240.910156 246.1875 240.066406 245.683594 C 239.222656 245.183594 238.308594 244.597656 237.316406 243.929688 C 236.324219 243.265625 235.265625 242.519531 234.132812 241.695312 C 233.003906 240.875 231.808594 239.976562 230.554688 239.003906 C 229.296875 238.03125 227.980469 236.988281 226.605469 235.875 C 225.234375 234.761719 223.808594 233.585938 222.332031 232.34375 C 220.855469 231.101562 219.335938 229.800781 217.773438 228.441406 C 216.210938 227.082031 214.609375 225.671875 212.972656 224.207031 C 211.335938 222.742188 209.667969 221.234375 207.972656 219.679688 C 206.28125 218.128906 204.5625 216.535156 202.828125 214.90625 C 201.09375 213.277344 199.34375 211.621094 197.585938 209.933594 C 195.824219 208.242188 194.0625 206.535156 192.292969 204.800781 C 190.527344 203.070312 188.765625 201.328125 187.003906 199.570312 C 185.246094 197.8125 183.503906 196.046875 181.773438 194.28125 C 180.039062 192.511719 178.332031 190.75 176.644531 188.988281 C 174.953125 187.230469 173.296875 185.480469 171.667969 183.746094 C 170.039062 182.007812 168.449219 180.292969 166.894531 178.601562 C 165.339844 176.90625 163.832031 175.238281 162.367188 173.601562 C 160.90625 171.964844 159.492188 170.363281 158.136719 168.800781 C 156.777344 167.234375 155.476562 165.714844 154.234375 164.242188 C 152.992188 162.765625 151.8125 161.339844 150.703125 159.964844 C 149.589844 158.59375 148.546875 157.277344 147.574219 156.019531 C 146.601562 154.761719 145.703125 153.570312 144.878906 152.4375 C 144.054688 151.308594 143.3125 150.25 142.644531 149.257812 C 141.980469 148.265625 141.394531 147.347656 140.890625 146.507812 C 140.390625 145.664062 139.972656 144.898438 139.636719 144.210938 C 139.304688 143.523438 139.054688 142.917969 138.894531 142.394531 C 138.730469 141.871094 138.65625 141.433594 138.667969 141.078125 C 138.675781 140.722656 138.773438 140.453125 138.960938 140.265625 C 139.144531 140.082031 139.414062 139.984375 139.769531 139.972656 C 140.125 139.964844 140.566406 140.039062 141.089844 140.199219 C 141.613281 140.363281 142.21875 140.609375 142.902344 140.945312 C 143.589844 141.277344 144.355469 141.695312 145.199219 142.199219 C 146.042969 142.703125 146.957031 143.285156 147.949219 143.953125 C 148.941406 144.617188 150 145.363281 151.132812 146.1875 C 152.261719 147.011719 153.453125 147.910156 154.710938 148.882812 C 155.96875 149.855469 157.285156 150.898438 158.660156 152.007812 C 160.03125 153.121094 161.457031 154.300781 162.933594 155.542969 C 164.40625 156.785156 165.929688 158.085938 167.492188 159.445312 C 169.054688 160.804688 170.65625 162.214844 172.292969 163.675781 C 173.929688 165.140625 175.597656 166.648438 177.292969 168.203125 C 178.984375 169.757812 180.699219 171.347656 182.4375 172.976562 C 184.171875 174.605469 185.921875 176.265625 187.679688 177.953125 C 189.441406 179.640625 191.203125 181.351562 192.972656 183.082031 C 194.738281 184.8125 196.5 186.558594 198.257812 188.316406 C 200.015625 190.074219 201.761719 191.835938 203.492188 193.605469 C 205.222656 195.371094 206.933594 197.136719 208.621094 198.894531 C 210.308594 200.65625 211.96875 202.402344 213.597656 204.140625 C 215.226562 205.875 216.816406 207.589844 218.371094 209.285156 C 219.925781 210.980469 221.433594 212.644531 222.894531 214.28125 C 224.359375 215.917969 225.769531 217.519531 227.128906 219.085938 C 228.488281 220.648438 229.789062 222.167969 231.03125 223.644531 C 232.273438 225.121094 233.453125 226.542969 234.5625 227.917969 C 235.675781 229.289062 236.71875 230.605469 237.691406 231.863281 C 238.664062 233.121094 239.5625 234.316406 240.386719 235.445312 C 241.210938 236.574219 241.953125 237.636719 242.621094 238.625 C 243.285156 239.617188 243.871094 240.535156 244.375 241.378906 C 244.875 242.222656 245.292969 242.984375 245.628906 243.671875 C 245.960938 244.359375 246.210938 244.964844 246.371094 245.488281 C 246.535156 246.011719 246.609375 246.453125 246.597656 246.808594 C 246.585938 247.164062 246.488281 247.433594 246.304688 247.617188 Z M 246.304688 247.617188 " fill-opacity="1" fill-rule="nonzero"/><path fill="#f34f29" d="M 177.722656 153.90625 C 175.128906 153.90625 172.539062 152.917969 170.5625 150.941406 C 166.605469 146.984375 166.605469 140.574219 170.5625 136.621094 L 228.285156 78.898438 C 232.238281 74.945312 238.648438 74.945312 242.601562 78.898438 C 246.558594 82.851562 246.558594 89.265625 242.601562 93.21875 L 184.882812 150.941406 C 182.902344 152.917969 180.3125 153.90625 177.722656 153.90625 Z M 177.722656 153.90625 " fill-opacity="1" fill-rule="nonzero"/><path fill="#f34f29" d="M 256.195312 75.433594 C 253.601562 75.433594 251.011719 74.445312 249.035156 72.46875 C 245.078125 68.511719 245.078125 62.101562 249.035156 58.148438 L 265.726562 41.457031 C 269.683594 37.5 276.09375 37.5 280.046875 41.457031 C 284 45.410156 284 51.820312 280.046875 55.773438 L 263.355469 72.46875 C 261.378906 74.445312 258.785156 75.433594 256.195312 75.433594 Z M 256.195312 75.433594 " fill-opacity="1" fill-rule="nonzero"/><path fill="#f34f29" d="M 197.738281 198.964844 C 195.144531 198.964844 192.554688 197.976562 190.578125 196 C 186.621094 192.046875 186.621094 185.632812 190.578125 181.679688 L 251.160156 121.097656 C 255.113281 117.144531 261.527344 117.140625 265.480469 121.097656 C 269.4375 125.050781 269.4375 131.460938 265.480469 135.417969 L 204.898438 196 C 202.921875 197.976562 200.328125 198.964844 197.738281 198.964844 Z M 197.738281 198.964844 " fill-opacity="1" fill-rule="nonzero"/><path fill="#f34f29" d="M 230.070312 231.300781 C 227.480469 231.300781 224.886719 230.3125 222.910156 228.335938 C 218.957031 224.378906 218.957031 217.96875 222.910156 214.015625 L 283.496094 153.429688 C 287.449219 149.476562 293.859375 149.476562 297.816406 153.429688 C 301.769531 157.386719 301.769531 163.796875 297.816406 167.75 L 237.230469 228.335938 C 235.253906 230.3125 232.664062 231.300781 230.070312 231.300781 Z M 230.070312 231.300781 " fill-opacity="1" fill-rule="nonzero"/><g clip-path="url(#e2198f706d)"><path fill="#f34f29" d="M 313.902344 147.464844 C 311.234375 147.464844 308.628906 146.386719 306.742188 144.503906 C 304.855469 142.617188 303.777344 140.007812 303.777344 137.34375 C 303.777344 134.679688 304.855469 132.066406 306.742188 130.179688 C 308.628906 128.300781 311.234375 127.214844 313.902344 127.214844 C 316.566406 127.214844 319.179688 128.300781 321.066406 130.179688 C 322.953125 132.066406 324.027344 134.679688 324.027344 137.34375 C 324.027344 140.007812 322.953125 142.617188 321.066406 144.503906 C 319.179688 146.386719 316.566406 147.464844 313.902344 147.464844 Z M 313.902344 147.464844 " fill-opacity="1" fill-rule="nonzero"/></g><path fill="#f34f29" d="M 79.152344 317.554688 C 76.558594 317.554688 73.96875 316.5625 71.992188 314.585938 C 68.035156 310.632812 68.035156 304.222656 71.992188 300.265625 L 92.070312 280.1875 C 96.023438 276.234375 102.433594 276.234375 106.390625 280.1875 C 110.34375 284.140625 110.34375 290.554688 106.390625 294.507812 L 86.308594 314.585938 C 84.332031 316.566406 81.742188 317.554688 79.152344 317.554688 Z M 79.152344 317.554688 " fill-opacity="1" fill-rule="nonzero"/><path fill="#f34f29" d="M 125.488281 271.214844 C 122.894531 271.214844 120.304688 270.226562 118.328125 268.25 C 114.375 264.296875 114.375 257.882812 118.328125 253.929688 L 152.828125 219.429688 C 156.785156 215.476562 163.195312 215.476562 167.148438 219.429688 C 171.101562 223.386719 171.101562 229.796875 167.148438 233.75 L 132.648438 268.25 C 130.671875 270.226562 128.078125 271.214844 125.488281 271.214844 Z M 125.488281 271.214844 " fill-opacity="1" fill-rule="nonzero"/><path fill="#f34f29" d="M 77.503906 254.125 C 74.914062 254.125 72.320312 253.132812 70.34375 251.15625 C 66.390625 247.203125 66.390625 240.792969 70.34375 236.835938 L 120.292969 186.890625 C 124.246094 182.9375 130.65625 182.9375 134.609375 186.890625 C 138.566406 190.84375 138.566406 197.257812 134.609375 201.210938 L 84.664062 251.15625 C 82.6875 253.136719 80.097656 254.125 77.503906 254.125 Z M 77.503906 254.125 " fill-opacity="1" fill-rule="nonzero"/><g clip-path="url(#5cfe05330a)"><path fill="#f34f29" d="M 123.839844 337.53125 C 121.25 337.53125 118.65625 336.542969 116.679688 334.566406 C 112.726562 330.609375 112.726562 324.199219 116.679688 320.246094 L 161.820312 275.105469 C 165.777344 271.152344 172.1875 271.148438 176.140625 275.105469 C 180.097656 279.058594 180.097656 285.46875 176.140625 289.425781 L 131 334.566406 C 129.023438 336.542969 126.433594 337.53125 123.839844 337.53125 Z M 123.839844 337.53125 " fill-opacity="1" fill-rule="nonzero"/></g><g clip-path="url(#c114662ee6)"><g clip-path="url(#017ed25aca)"><g transform="matrix(1, 0, 0, 1, 37, 37)"><g clip-path="url(#f4ec783d63)"><g clip-path="url(#4e7b759bfa)"><g clip-path="url(#5cc6f9b70b)"><path fill="#f34f29" d="M 0.5 0.5 L 300.5 0.5 L 300.5 300.5 L 0.5 300.5 Z M 0.5 0.5 " fill-opacity="1" fill-rule="nonzero"/></g></g></g></g></g></g><path fill="#ffffff" d="M 285.566406 314.570312 C 267.273438 314.570312 242.804688 301.09375 225.503906 289.789062 C 201.320312 273.984375 175.179688 252.277344 149.910156 227.007812 C 119.785156 196.882812 94.566406 165.289062 78.902344 138.046875 C 60.765625 106.5 57.484375 84.589844 69.15625 72.917969 C 73.675781 68.398438 79.875 66.109375 87.582031 66.109375 C 105.878906 66.109375 130.34375 79.585938 147.648438 90.890625 C 171.832031 106.695312 197.972656 128.402344 223.242188 153.671875 C 253.367188 183.796875 278.585938 215.390625 294.246094 242.632812 C 312.386719 274.175781 315.664062 296.089844 303.996094 307.761719 C 299.476562 312.277344 293.277344 314.570312 285.566406 314.570312 Z M 87.582031 85.40625 C 85.28125 85.40625 83.535156 85.828125 82.800781 86.5625 C 80.949219 88.414062 79.332031 100.082031 95.632812 128.429688 C 110.472656 154.242188 134.59375 184.402344 163.554688 213.363281 C 217.328125 267.140625 265.640625 295.273438 285.566406 295.273438 C 287.871094 295.273438 289.617188 294.851562 290.351562 294.117188 C 292.203125 292.265625 293.820312 280.597656 277.519531 252.25 C 262.679688 226.4375 238.558594 196.277344 209.601562 167.316406 C 155.824219 113.539062 107.511719 85.40625 87.582031 85.40625 Z M 87.582031 85.40625 " fill-opacity="1" fill-rule="nonzero"/><path fill="#ffffff" d="M 243.527344 244.777344 C 243.351562 244.953125 243.09375 245.046875 242.757812 245.054688 C 242.417969 245.066406 242 244.996094 241.5 244.839844 C 241 244.683594 240.425781 244.449219 239.769531 244.128906 C 239.117188 243.8125 238.386719 243.414062 237.582031 242.933594 C 236.78125 242.457031 235.90625 241.898438 234.960938 241.265625 C 234.019531 240.628906 233.007812 239.921875 231.929688 239.136719 C 230.855469 238.351562 229.71875 237.496094 228.519531 236.570312 C 227.320312 235.640625 226.066406 234.648438 224.757812 233.589844 C 223.449219 232.527344 222.09375 231.40625 220.6875 230.222656 C 219.28125 229.039062 217.832031 227.800781 216.34375 226.503906 C 214.851562 225.210938 213.328125 223.867188 211.769531 222.472656 C 210.207031 221.078125 208.621094 219.640625 207.007812 218.160156 C 205.390625 216.679688 203.757812 215.164062 202.105469 213.613281 C 200.449219 212.058594 198.785156 210.480469 197.109375 208.871094 C 195.429688 207.261719 193.75 205.632812 192.066406 203.984375 C 190.382812 202.335938 188.703125 200.671875 187.027344 198.996094 C 185.355469 197.324219 183.691406 195.644531 182.042969 193.957031 C 180.394531 192.273438 178.765625 190.59375 177.15625 188.917969 C 175.546875 187.242188 173.96875 185.574219 172.414062 183.921875 C 170.863281 182.265625 169.347656 180.632812 167.867188 179.019531 C 166.386719 177.402344 164.949219 175.816406 163.554688 174.257812 C 162.160156 172.695312 160.816406 171.171875 159.523438 169.683594 C 158.226562 168.191406 156.988281 166.742188 155.804688 165.335938 C 154.621094 163.929688 153.5 162.574219 152.4375 161.265625 C 151.378906 159.957031 150.386719 158.703125 149.457031 157.503906 C 148.53125 156.308594 147.675781 155.167969 146.890625 154.09375 C 146.105469 153.015625 145.398438 152.007812 144.761719 151.0625 C 144.128906 150.117188 143.570312 149.242188 143.09375 148.441406 C 142.613281 147.636719 142.214844 146.910156 141.898438 146.253906 C 141.578125 145.601562 141.34375 145.023438 141.1875 144.523438 C 141.035156 144.027344 140.960938 143.605469 140.972656 143.269531 C 140.984375 142.929688 141.074219 142.671875 141.25 142.496094 C 141.425781 142.320312 141.683594 142.226562 142.023438 142.21875 C 142.363281 142.207031 142.78125 142.277344 143.28125 142.433594 C 143.777344 142.585938 144.355469 142.824219 145.011719 143.140625 C 145.664062 143.460938 146.394531 143.859375 147.195312 144.335938 C 148 144.816406 148.871094 145.371094 149.816406 146.007812 C 150.761719 146.640625 151.773438 147.351562 152.847656 148.136719 C 153.925781 148.921875 155.0625 149.777344 156.261719 150.703125 C 157.457031 151.628906 158.710938 152.625 160.019531 153.683594 C 161.328125 154.746094 162.6875 155.867188 164.09375 157.050781 C 165.5 158.234375 166.945312 159.472656 168.4375 160.765625 C 169.925781 162.0625 171.453125 163.40625 173.011719 164.800781 C 174.570312 166.195312 176.160156 167.632812 177.773438 169.113281 C 179.386719 170.59375 181.023438 172.109375 182.675781 173.660156 C 184.328125 175.214844 185.996094 176.792969 187.671875 178.402344 C 189.347656 180.011719 191.027344 181.640625 192.710938 183.289062 C 194.398438 184.9375 196.074219 186.601562 197.75 188.277344 C 199.425781 189.949219 201.089844 191.628906 202.738281 193.3125 C 204.386719 194.996094 206.015625 196.679688 207.625 198.355469 C 209.234375 200.03125 210.8125 201.699219 212.363281 203.351562 C 213.917969 205.003906 215.433594 206.640625 216.914062 208.253906 C 218.394531 209.867188 219.828125 211.457031 221.222656 213.015625 C 222.617188 214.574219 223.964844 216.101562 225.257812 217.589844 C 226.554688 219.082031 227.792969 220.527344 228.976562 221.933594 C 230.160156 223.339844 231.28125 224.699219 232.339844 226.007812 C 233.402344 227.316406 234.394531 228.570312 235.320312 229.765625 C 236.25 230.964844 237.105469 232.101562 237.886719 233.179688 C 238.671875 234.257812 239.382812 235.265625 240.015625 236.210938 C 240.652344 237.15625 241.207031 238.027344 241.6875 238.832031 C 242.164062 239.636719 242.5625 240.363281 242.882812 241.019531 C 243.199219 241.671875 243.4375 242.25 243.589844 242.746094 C 243.746094 243.246094 243.816406 243.664062 243.808594 244.003906 C 243.796875 244.34375 243.703125 244.601562 243.527344 244.777344 Z M 243.527344 244.777344 " fill-opacity="1" fill-rule="nonzero"/><path fill="#ffffff" d="M 178.183594 155.492188 C 175.714844 155.492188 173.246094 154.550781 171.363281 152.664062 C 167.59375 148.898438 167.59375 142.789062 171.363281 139.023438 L 226.355469 84.027344 C 230.125 80.257812 236.234375 80.257812 240 84.027344 C 243.769531 87.792969 243.769531 93.902344 240 97.671875 L 185.003906 152.664062 C 183.121094 154.550781 180.652344 155.492188 178.183594 155.492188 Z M 178.183594 155.492188 " fill-opacity="1" fill-rule="nonzero"/><path fill="#ffffff" d="M 252.949219 80.722656 C 250.480469 80.722656 248.011719 79.78125 246.128906 77.898438 C 242.359375 74.128906 242.359375 68.023438 246.128906 64.253906 L 262.03125 48.351562 C 265.800781 44.582031 271.910156 44.582031 275.675781 48.351562 C 279.445312 52.117188 279.445312 58.226562 275.675781 61.996094 L 259.773438 77.898438 C 257.886719 79.78125 255.417969 80.722656 252.949219 80.722656 Z M 252.949219 80.722656 " fill-opacity="1" fill-rule="nonzero"/><path fill="#ffffff" d="M 197.253906 198.421875 C 194.785156 198.421875 192.316406 197.480469 190.429688 195.597656 C 186.664062 191.828125 186.664062 185.722656 190.429688 181.953125 L 248.15625 124.230469 C 251.921875 120.464844 258.03125 120.464844 261.796875 124.230469 C 265.566406 128 265.566406 134.109375 261.796875 137.875 L 204.074219 195.597656 C 202.191406 197.480469 199.722656 198.421875 197.253906 198.421875 Z M 197.253906 198.421875 " fill-opacity="1" fill-rule="nonzero"/><path fill="#ffffff" d="M 228.0625 229.230469 C 225.589844 229.230469 223.121094 228.289062 221.238281 226.40625 C 217.472656 222.636719 217.472656 216.527344 221.238281 212.761719 L 278.960938 155.039062 C 282.726562 151.269531 288.835938 151.269531 292.605469 155.039062 C 296.371094 158.804688 296.371094 164.914062 292.605469 168.683594 L 234.882812 226.40625 C 233 228.289062 230.53125 229.230469 228.0625 229.230469 Z M 228.0625 229.230469 " fill-opacity="1" fill-rule="nonzero"/><g clip-path="url(#7a38a5f9a2)"><path fill="#ffffff" d="M 307.929688 149.355469 C 305.390625 149.355469 302.90625 148.328125 301.109375 146.53125 C 299.3125 144.734375 298.289062 142.25 298.289062 139.710938 C 298.289062 137.171875 299.3125 134.683594 301.109375 132.886719 C 302.90625 131.09375 305.390625 130.0625 307.929688 130.0625 C 310.46875 130.0625 312.960938 131.09375 314.757812 132.886719 C 316.554688 134.683594 317.582031 137.171875 317.582031 139.710938 C 317.582031 142.25 316.554688 144.734375 314.757812 146.53125 C 312.960938 148.328125 310.46875 149.355469 307.929688 149.355469 Z M 307.929688 149.355469 " fill-opacity="1" fill-rule="nonzero"/></g><path fill="#ffffff" d="M 84.265625 311.410156 C 81.796875 311.410156 79.328125 310.46875 77.445312 308.582031 C 73.675781 304.816406 73.675781 298.707031 77.445312 294.9375 L 96.574219 275.808594 C 100.34375 272.039062 106.453125 272.039062 110.21875 275.808594 C 113.988281 279.578125 113.988281 285.683594 110.21875 289.453125 L 91.089844 308.582031 C 89.207031 310.46875 86.734375 311.410156 84.265625 311.410156 Z M 84.265625 311.410156 " fill-opacity="1" fill-rule="nonzero"/><path fill="#ffffff" d="M 128.417969 267.261719 C 125.945312 267.261719 123.476562 266.320312 121.59375 264.433594 C 117.828125 260.667969 117.828125 254.558594 121.59375 250.792969 L 154.464844 217.921875 C 158.234375 214.152344 164.34375 214.152344 168.109375 217.921875 C 171.878906 221.6875 171.878906 227.796875 168.109375 231.566406 L 135.238281 264.433594 C 133.355469 266.316406 130.886719 267.261719 128.417969 267.261719 Z M 128.417969 267.261719 " fill-opacity="1" fill-rule="nonzero"/><path fill="#ffffff" d="M 82.699219 250.976562 C 80.230469 250.976562 77.761719 250.035156 75.878906 248.148438 C 72.109375 244.382812 72.109375 238.273438 75.878906 234.503906 L 123.464844 186.917969 C 127.234375 183.148438 133.339844 183.148438 137.109375 186.917969 C 140.875 190.6875 140.875 196.792969 137.109375 200.5625 L 89.519531 248.148438 C 87.636719 250.035156 85.167969 250.976562 82.699219 250.976562 Z M 82.699219 250.976562 " fill-opacity="1" fill-rule="nonzero"/><g clip-path="url(#5abf57aa3d)"><path fill="#ffffff" d="M 126.847656 330.445312 C 124.378906 330.445312 121.910156 329.503906 120.023438 327.617188 C 116.257812 323.851562 116.257812 317.742188 120.023438 313.972656 L 163.035156 270.964844 C 166.800781 267.199219 172.910156 267.199219 176.675781 270.964844 C 180.445312 274.734375 180.445312 280.84375 176.675781 284.609375 L 133.667969 327.617188 C 131.785156 329.5 129.316406 330.445312 126.847656 330.445312 Z M 126.847656 330.445312 " fill-opacity="1" fill-rule="nonzero"/></g></svg>